<?xml version="1.0" encoding="utf-8"?>
<!-- Generator: Adobe Illustrator 24.1.3, SVG Export Plug-In . SVG Version: 6.00 Build 0)  -->
<svg version="1.2" baseProfile="tiny" id="Слой_1"
	 xmlns="http://www.w3.org/2000/svg" xmlns:xlink="http://www.w3.org/1999/xlink" x="0px" y="0px" viewBox="0 0 500 500"
	 overflow="visible" xml:space="preserve">
<path fill="#4B6584" d="M500,250L500,250c0,138.07-111.93,250-250,250h0C111.93,500,0,388.07,0,250v0C0,111.93,111.93,0,250,0h0
	C388.07,0,500,111.93,500,250z"/>
<rect x="149.19" y="196.95" transform="matrix(0.7812 0.6243 -0.6243 0.7812 261.8353 -127.9743)" display="none" fill="#4C5A84" width="328.6" height="225.19"/>
<path d="M148.39,228.49"/>
<g>
	<path fill="#FFFFFF" d="M369.4,214.66c-3.71-20.84-12.21-39.32-25.52-55.46c-13.32-16.13-30.62-28.08-51.92-35.83
		c-21.3-7.76-42.31-9.76-63.01-6.01c-0.84,0.16-1.68,0.31-2.51,0.5c-19.7,3.99-37.33,12.47-52.9,25.51
		c-16.24,13.58-28.28,31.16-36.13,52.75c-7.86,21.58-10.33,42.58-7.38,62.98c2.94,20.4,10.51,38.47,22.74,54.21
		c12.21,15.74,28.28,27.24,48.23,34.49c19.93,7.26,39.65,8.78,59.12,4.58c11.77-2.54,22.81-6.84,33.09-12.88
		c0.16-0.09,0.31-0.17,0.47-0.28c6.54-3.88,12.79-8.46,18.7-13.77c15.36-13.74,26.97-31.4,34.82-52.98l15.98,5.82
		C371.03,256.71,373.1,235.5,369.4,214.66z M263.55,317.43c-13.36,2.73-27,1.54-40.94-3.54c-13.66-4.97-24.81-12.8-33.44-23.53
		c-8.63-10.71-14.03-23.05-16.23-37c-2.2-13.94-0.65-28.16,4.61-42.64c5.37-14.75,13.38-26.75,24.03-36.04
		c10.42-9.08,22.22-14.98,35.37-17.71c0.28-0.08,0.56-0.12,0.84-0.19c13.5-2.68,27.08-1.53,40.74,3.44
		c13.94,5.08,25.15,12.96,33.64,23.62c8.49,10.67,13.77,22.96,15.82,36.85c2.06,13.89,0.4,28.22-4.97,42.97
		c-5.26,14.48-13.16,26.38-23.67,35.71c-0.08,0.06-0.16,0.14-0.23,0.2C288.67,308.78,276.82,314.73,263.55,317.43z M334.53,251.16
		l-23.59,40.6l-22.81,62.68c-2.18,6.01-2.02,11.73,0.5,17.13c2.52,5.39,6.79,9.19,12.8,11.38c6,2.18,11.71,2.01,17.12-0.5
		c5.39-2.52,9.19-6.79,11.38-12.8l33.25-91.37L334.53,251.16z"/>
</g>
<linearGradient id="SVGID_1_" gradientUnits="userSpaceOnUse" x1="136.8821" y1="304.1787" x2="321.5349" y2="304.1787">
	<stop  offset="0.2746" style="stop-color:#FFFFFF"/>
	<stop  offset="0.5573" style="stop-color:#FDFDFD;stop-opacity:0.8051"/>
	<stop  offset="0.6591" style="stop-color:#F6F6F6;stop-opacity:0.7349"/>
	<stop  offset="0.7318" style="stop-color:#EBEBEB;stop-opacity:0.6849"/>
	<stop  offset="0.7905" style="stop-color:#DADADA;stop-opacity:0.6444"/>
	<stop  offset="0.8408" style="stop-color:#C4C4C4;stop-opacity:0.6098"/>
	<stop  offset="0.8853" style="stop-color:#A8A8A8;stop-opacity:0.5791"/>
	<stop  offset="0.9256" style="stop-color:#888888;stop-opacity:0.5513"/>
	<stop  offset="0.9626" style="stop-color:#626262;stop-opacity:0.5258"/>
	<stop  offset="0.9956" style="stop-color:#393939;stop-opacity:0.5031"/>
	<stop  offset="1" style="stop-color:#333333;stop-opacity:0.5"/>
</linearGradient>
<path fill="url(#SVGID_1_)" d="M321.53,267.47l-7.09,18.22l-20.79,53.53c-0.16,0.11-0.31,0.19-0.47,0.28
	c-10.28,6.04-21.32,10.34-33.09,12.88c-19.47,4.2-39.18,2.68-59.12-4.58c-19.95-7.26-36.02-18.75-48.23-34.49
	c-6.68-8.6-11.96-17.89-15.87-27.88L173,253.67c2.21,13.83,7.6,26.05,16.17,36.69c8.63,10.73,19.78,18.56,33.44,23.53
	c13.94,5.08,27.58,6.26,40.94,3.54c13.27-2.69,25.12-8.64,35.57-17.85c0.08-0.06,0.16-0.14,0.23-0.2
	C308.92,290.87,316.33,280.24,321.53,267.47z"/>
<g>
</g>
<g>
</g>
<g>
</g>
<g>
</g>
<g>
</g>
</svg>
